HIERARCHY
ROOT Hips
{
	OFFSET	0.00	0.00	0.00
	CHANNELS 6 Xposition Yposition Zposition Zrotation Xrotation Yrotation
	JOINT LeftUpLeg
	{
		OFFSET	 0.126116	-0.065224	 0.014019
		CHANNELS 3 Zrotation Xrotation Yrotation
		JOINT LeftLeg
		{
			OFFSET	 0.000000	 0.569914	 0.000000
			CHANNELS 3 Zrotation Xrotation Yrotation
			JOINT LeftFoot
			{
				OFFSET	 0.000000	 0.544423	 0.000000
				CHANNELS 3 Zrotation Xrotation Yrotation
				JOINT LeftToeBase
				{
					OFFSET	 0.000000	 0.207117	 0.000000
					CHANNELS 3 Zrotation Xrotation Yrotation
					End Site
					{
						OFFSET	 0.000000	 0.207117	 0.000000
					}
				}
			}
		}
	}
	JOINT RightUpLeg
	{
		OFFSET	-0.124023	-0.065224	 0.008373
		CHANNELS 3 Zrotation Xrotation Yrotation
		JOINT RightLeg
		{
			OFFSET	 0.000000	 0.570047	 0.000000
			CHANNELS 3 Zrotation Xrotation Yrotation
			JOINT RightFoot
			{
				OFFSET	 0.000000	 0.544354	 0.000000
				CHANNELS 3 Zrotation Xrotation Yrotation
				JOINT RightToeBase
				{
					OFFSET	 0.000000	 0.207540	 0.000000
					CHANNELS 3 Zrotation Xrotation Yrotation
					End Site
					{
						OFFSET	 0.000000	 0.207540	 0.000000
					}
				}
			}
		}
	}
	JOINT Spine
	{
		OFFSET	 0.000184	 0.117403	 0.007763
		CHANNELS 3 Zrotation Xrotation Yrotation
		JOINT Spine1
		{
			OFFSET	 0.000000	 0.137269	 0.000000
			CHANNELS 3 Zrotation Xrotation Yrotation
			JOINT Spine2
			{
				OFFSET	 0.000000	 0.156879	 0.000000
				CHANNELS 3 Zrotation Xrotation Yrotation
				JOINT LeftShoulder
				{
					OFFSET	 0.080501	 0.160143	 0.002496
					CHANNELS 3 Zrotation Xrotation Yrotation
					JOINT LeftArm
					{
						OFFSET	 0.000000	 0.164363	 0.000000
						CHANNELS 3 Zrotation Xrotation Yrotation
						JOINT LeftForeArm
						{
							OFFSET	 0.000000	 0.364576	 0.000000
							CHANNELS 3 Zrotation Xrotation Yrotation
							JOINT LeftHand
							{
								OFFSET	 0.000000	 0.360812	 0.000000
								CHANNELS 3 Zrotation Xrotation Yrotation
								JOINT LeftHandIndex1
								{
									OFFSET	 0.000000	 0.086006	 0.000000
									CHANNELS 3 Zrotation Xrotation Yrotation
									JOINT LeftHandIndex2
									{
										OFFSET	 0.000000	 0.047237	 0.000000
										CHANNELS 3 Zrotation Xrotation Yrotation
										JOINT LeftHandIndex3
										{
											OFFSET	-0.004284	 0.038165	 0.000551
											CHANNELS 3 Zrotation Xrotation Yrotation
											End Site
											{
												OFFSET	-0.004284	 0.038165	 0.000551
											}
										}
									}
								}
							}
						}
					}
				}
				JOINT Neck
				{
					OFFSET	 0.000000	 0.176489	 0.000000
					CHANNELS 3 Zrotation Xrotation Yrotation
					JOINT Head
					{
						OFFSET	 0.000000	 0.077941	 0.001747
						CHANNELS 3 Zrotation Xrotation Yrotation
						End Site
						{
							OFFSET	 0.000000	 0.077941	 0.001747
						}
					}
				}
				JOINT RightShoulder
				{
					OFFSET	-0.080363	 0.159706	-0.000306
					CHANNELS 3 Zrotation Xrotation Yrotation
					JOINT RightArm
					{
						OFFSET	 0.000000	 0.164196	 0.000000
						CHANNELS 3 Zrotation Xrotation Yrotation
						JOINT RightForeArm
						{
							OFFSET	 0.000000	 0.365611	 0.000000
							CHANNELS 3 Zrotation Xrotation Yrotation
							JOINT RightHand
							{
								OFFSET	 0.000000	 0.360648	 0.000000
								CHANNELS 3 Zrotation Xrotation Yrotation
								JOINT RightHandIndex1
								{
									OFFSET	 0.000000	 0.069977	 0.000000
									CHANNELS 3 Zrotation Xrotation Yrotation
									JOINT RightHandIndex2
									{
										OFFSET	 0.000000	 0.052305	 0.000000
										CHANNELS 3 Zrotation Xrotation Yrotation
										JOINT RightHandIndex3
										{
											OFFSET	 0.009002	 0.042196	 0.000782
											CHANNELS 3 Zrotation Xrotation Yrotation
											End Site
											{
												OFFSET	 0.009002	 0.042196	 0.000782
											}
										}
									}
								}
							}
						}
					}
				}
			}
		}
	}
}
MOTION
Frames:    8
Frame Time: 0.03333334
 0.018604	 1.207504	-0.211184	 1.958098	 0.338599	 171.869200	-164.100800	 16.779790	-16.991150	 9.754053	-32.471330	 4.820341	-24.277230	 73.947720	 14.339930	 1.161682	 26.684600	-2.659522	 178.724400	-2.366675	 7.477809	-2.245469	-27.390120	 7.788288	 69.840120	 87.207050	-64.269960	-1.288664	 28.368160	 2.710379	 2.293141	 6.309318	 1.415546	 0.429450	 3.897858	 0.933750	 1.471956	-3.392733	 0.611350	-113.047800	 6.504665	 92.950570	 20.870580	 50.566570	 4.306069	 10.082710	-0.519043	-0.038063	 16.464600	-4.528473	 11.330600	 0.675859	 8.296464	-0.354958	-5.948164	 13.657780	 1.526552	 4.991756	-3.386278	-0.331657	 3.181639	-6.828786	 0.895148	-1.257615	-5.508555	 3.651064	 123.360200	 10.389690	-96.373090	-8.364896	 44.282490	-1.405407	-5.116693	-0.201158	 0.049646	-3.796304	-10.144110	-22.406770	-2.349211	 4.975097	 0.894620	 12.555300	 23.135110	-5.216654	-8.502349	 13.295380	-0.537694
 0.015938	 1.213194	-0.166210	 1.880742	 0.183370	 171.134400	-164.006500	 16.293650	-17.759900	 9.051445	-30.579910	 4.153607	-22.589020	 72.295270	 12.994970	 1.161037	 26.675870	-2.659266	 178.752000	 1.710270	 7.163851	-2.523544	-30.298100	 7.353863	 47.914590	 86.920250	-42.792340	-1.288047	 28.360040	 2.710118	 2.486948	 6.249512	 1.300465	 0.258124	 3.846552	 1.007636	 1.580947	-3.496710	 0.764294	-112.766500	 6.544298	 92.980010	 19.930160	 50.948130	 5.362408	 11.318570	-0.581918	-0.026164	 16.202790	-5.274452	 11.456130	 0.894127	 7.618486	-0.351515	-5.945417	 13.810020	 1.542878	 5.002753	-3.144313	-0.325856	 3.173661	-6.834731	 0.941113	-1.265170	-5.643802	 4.002531	 123.171600	 10.420350	-96.353310	-8.190519	 44.354350	-1.303977	-5.432550	-0.213506	 0.048511	-4.325260	-10.886930	-22.031160	-2.428194	 5.222448	 0.891743	 12.604340	 23.787790	-5.375430	-8.506796	 13.829600	-0.571443
 0.012138	 1.219607	-0.115982	 1.767857	-0.054522	 170.003100	-163.752300	 16.386350	-18.962330	 8.774515	-29.812220	 3.555052	-22.332350	 71.061760	 12.988180	 1.160048	 26.662490	-2.658873	 178.861800	 5.871820	 6.623789	-2.728994	-32.418600	 6.785922	 23.873170	 85.673550	-19.347640	-1.287101	 28.347590	 2.709717	 2.789041	 6.156663	 1.026626	 0.190026	 3.820568	 0.976712	 1.662868	-3.679164	 1.042777	-112.335100	 6.605385	 93.024800	 19.064760	 51.587210	 6.556088	 12.466790	-0.640040	-0.013970	 16.142000	-6.539027	 11.469280	 1.228632	 6.577813	-0.341182	-5.941285	 14.043520	 1.567924	 5.019570	-2.773179	-0.317050	 3.161433	-6.843860	 1.011607	-1.275066	-5.851509	 4.542038	 122.882200	 10.467270	-96.322730	-6.731110	 44.422890	-1.982306	-7.749837	-0.304082	 0.038048	-4.219075	-11.981730	-21.662280	-2.549379	 5.601852	 0.887994	 12.683990	 24.789300	-5.621922	-8.513008	 14.649330	-0.623302
 0.007240	 1.225565	-0.071082	 1.646447	-0.325986	 168.711500	-163.547900	 15.879160	-20.322930	 8.159769	-28.063260	 2.735784	-21.662140	 69.454260	 12.713370	 1.158925	 26.647280	-2.658428	 179.042700	 9.268323	 5.957515	-2.813857	-33.357960	 6.216006	 10.304580	 83.680900	-6.370938	-1.286026	 28.333450	 2.709263	 3.138200	 6.049624	 0.593186	 0.353733	 3.871607	 0.914603	 1.640382	-3.925933	 1.260714	-111.845200	 6.675139	 93.075110	 18.398560	 52.356960	 7.686344	 13.383540	-0.686245	-0.003326	 16.204490	-8.100831	 11.248250	 1.608256	 5.395190	-0.322055	-5.936717	 14.308640	 1.596373	 5.038589	-2.351744	-0.307187	 3.147564	-6.854244	 1.091646	-1.283844	-6.087397	 5.155245	 122.553600	 10.520330	-96.287730	-6.121447	 44.426110	-2.019060	-9.056967	-0.354886	 0.030424	-4.782370	-13.217890	-21.509160	-2.687059	 6.032690	 0.884712	 12.781120	 25.926980	-5.906398	-8.519160	 15.580560	-0.682346
 0.004867	 1.228756	-0.048169	 1.505516	-0.660910	 167.132700	-163.254900	 15.412700	-21.990320	 7.782786	-26.960250	 1.926386	-22.061540	 68.388310	 13.414380	 1.157559	 26.628790	-2.657886	 179.289200	 11.304830	 5.172946	-2.896859	-33.705300	 5.455164	 3.084229	 82.351070	 0.518262	-1.284720	 28.316250	 2.708711	 3.570713	 5.917028	-0.072945	 0.816369	 4.054016	 0.647148	 1.497448	-4.282015	 1.577768	-111.249000	 6.760616	 93.135530	 17.982820	 53.320470	 8.769266	 14.057390	-0.720116	 0.004972	 16.407550	-10.130880	 10.707960	 2.070241	 3.955194	-0.288200	-5.931334	 14.631250	 1.631006	 5.061629	-1.838908	-0.295377	 3.130707	-6.866905	 1.189034	-1.290953	-6.374715	 5.902063	 122.153600	 10.584660	-96.244710	-6.263815	 44.355900	-1.442433	-9.603106	-0.376044	 0.026992	-6.046104	-14.677920	-21.620650	-2.854722	 6.556982	 0.882119	 12.909290	 27.311710	-6.259580	-8.525337	 16.714200	-0.754459
 0.006440	 1.229109	-0.045906	 1.343839	-1.060765	 165.281200	-162.810400	 15.220540	-23.960510	 7.770967	-26.925320	 1.178258	-23.689600	 68.023900	 15.180140	 1.155963	 26.607160	-2.657254	 179.615100	 12.357850	 4.138232	-2.945486	-34.146630	 4.661752	-2.860591	 82.082790	 6.373293	-1.283193	 28.296150	 2.708066	 4.144844	 5.749156	-0.987231	 1.473651	 4.447128	 0.214130	 1.280794	-4.787718	 1.943000	-110.552100	 6.861302	 93.205030	 17.772160	 54.402450	 9.824687	 14.617250	-0.748156	 0.012085	 16.629520	-12.585110	 9.807393	 2.610861	 2.271410	-0.233921	-5.925288	 15.008320	 1.671513	 5.088419	-1.239446	-0.281837	 3.111032	-6.881739	 1.302860	-1.294323	-6.710538	 6.775712	 121.685900	 10.659470	-96.193850	-7.019365	 44.195110	-0.354860	-9.632509	-0.377197	 0.026797	-7.925720	-16.285430	-22.019740	-3.050910	 7.169839	 0.881046	 13.073660	 28.930200	-6.682948	-8.530704	 18.039720	-0.839184
 0.008296	 1.229609	-0.042982	 1.127203	-1.585356	 162.908900	-162.243600	 14.949050	-26.484180	 7.742186	-26.840070	 0.214898	-25.684690	 67.543060	 17.363020	 1.153922	 26.579500	-2.656447	-179.898100	 13.656300	 2.796768	-2.996080	-34.600970	 3.657987	-9.880952	 81.594920	 13.241460	-1.281240	 28.270430	 2.707242	 4.862336	 5.538006	-2.231552	 2.460015	 5.139901	-0.410568	 0.943254	-5.533684	 2.403854	-109.660500	 6.991351	 93.292180	 17.512410	 55.579380	 11.158720	 15.484700	-0.791462	 0.023693	 16.680450	-15.672610	 8.457205	 3.304511	 0.117723	-0.141350	-5.917940	 15.490730	 1.723379	 5.122480	-0.472530	-0.264926	 3.085904	-6.900773	 1.448475	-1.290874	-7.139829	 7.894071	 121.087300	 10.754560	-96.127850	-8.000338	 43.927420	 1.045485	-9.826773	-0.384736	 0.025455	-10.401480	-18.157120	-22.658720	-3.302290	 7.953889	 0.882760	 13.308280	 30.999460	-7.242749	-8.534598	 19.735670	-0.948379
 0.010119	 1.230132	-0.039865	 0.842255	-2.188082	 160.198000	-161.636200	 14.611800	-29.315690	 7.711149	-26.747920	-0.887253	-27.833290	 67.030130	 19.707900	 1.151585	 26.547820	-2.655523	-179.318800	 15.073470	 1.288276	-3.044292	-35.029090	 2.520388	-16.677000	 80.911460	 19.832410	-1.279004	 28.240970	 2.706299	 5.685578	 5.285411	-3.562517	 3.327426	 6.079928	-1.017758	 0.683848	-6.465656	 2.925066	-108.639200	 7.141916	 93.389490	 17.097440	 56.545170	 12.755160	 16.674710	-0.850612	 0.040777	 16.593100	-18.915460	 7.031187	 4.103589	-2.346416	-0.003259	-5.910061	 16.043320	 1.782863	 5.161216	 0.405929	-0.246117	 3.057179	-6.922653	 1.615272	-1.276241	-7.630671	 9.175158	 120.401200	 10.862650	-96.050970	-8.343719	 43.665400	 2.106226	-11.010820	-0.430571	 0.017082	-12.893780	-20.095550	-23.099270	-3.590882	 8.851932	 0.889004	 13.613250	 33.366080	-7.911994	-8.534839	 21.677810	-1.074785
